<svg xmlns="http://www.w3.org/2000/svg" width="16" height="16" fill="currentColor" class="icon icon-lefleur" viewBox="0 0 16.93 16">
    <path d="M16.79,5.61c-.76-2-3.57-.83-4.29-.56l-.19.07s2.62-3.37-.12-4.75C9.24-1.12,7.72,2.29,7.37,4.05c0,0-3.55-2.59-5.28-.18C1,5.32,1.82,7.49,3.82,8.42c0,0-3.58,1.87-3.81,4.51s3.52,4.36,6.28,1.84A30.74,30.74,0,0,0,8.6,12.43s4.12,5.12,7.16,2.55S14.52,9.48,14,9.26h-.05A2.2,2.2,0,0,1,14.47,9c.9-.52,3-1.48,2.32-3.36M9.26,10.35a2.46,2.46,0,1,1,2.4-2.46,2.43,2.43,0,0,1-2.4,2.46"></path> 
</svg>